HIERARCHY
ROOT Hips
{
    OFFSET   0.000000   0.000000   0.000000
    CHANNELS 6 Xposition Yposition Zposition Zrotation Xrotation Yrotation
    JOINT Chest
    {
        OFFSET   0.000000   8.007230   0.000000
        CHANNELS 3 Zrotation Xrotation Yrotation
        JOINT Chest2
        {
            OFFSET   0.000000  22.077100   0.000000
            CHANNELS 3 Zrotation Xrotation Yrotation
            JOINT Neck
            {
                OFFSET   0.000000  23.254800  -0.000021
                CHANNELS 3 Zrotation Xrotation Yrotation
                JOINT Head
                {
                    OFFSET   0.000000  14.370000   1.956610
                    CHANNELS 3 Zrotation Xrotation Yrotation
                    End Site
                    {
                        OFFSET   0.000000  19.566000   0.000000
                    }
                }
            }
            JOINT LeftCollar
            {
                OFFSET   3.911900  19.017000  -0.467063
                CHANNELS 3 Zrotation Xrotation Yrotation
                JOINT LeftShoulder
                {
                    OFFSET  10.383700   0.000000   0.000000
                    CHANNELS 3 Zrotation Xrotation Yrotation
                    JOINT LeftElbow
                    {
                        OFFSET  26.662100   0.001529   0.000325
                        CHANNELS 3 Zrotation Xrotation Yrotation
                        JOINT LeftWrist
                        {
                            OFFSET  28.869000  -0.000011  -0.000096
                            CHANNELS 3 Zrotation Xrotation Yrotation
                            JOINT LeftFinger0
                            {
                                OFFSET   2.044650  -2.323460   3.252850
                                CHANNELS 3 Zrotation Xrotation Yrotation
                                JOINT LeftFinger01
                                {
                                    OFFSET   3.088130   0.000000   0.000000
                                    CHANNELS 3 Zrotation Xrotation Yrotation
                                    JOINT LeftFinger02
                                    {
                                        OFFSET   2.639460   0.000000   0.000000
                                        CHANNELS 3 Zrotation Xrotation Yrotation
                                        End Site
                                        {
                                            OFFSET   2.582190   0.000000   0.000000
                                        }
                                    }
                                }
                            }
                            JOINT LeftFinger1
                            {
                                OFFSET   8.364480   0.000000   3.252850
                                CHANNELS 3 Zrotation Xrotation Yrotation
                                JOINT LeftFinger11
                                {
                                    OFFSET   4.646930   0.000000   0.000000
                                    CHANNELS 3 Zrotation Xrotation Yrotation
                                    JOINT LeftFinger12
                                    {
                                        OFFSET   2.323460   0.000000   0.000000
                                        CHANNELS 3 Zrotation Xrotation Yrotation
                                        End Site
                                        {
                                            OFFSET   2.273050   0.000000   0.000000
                                        }
                                    }
                                }
                            }
                            JOINT LeftFinger2
                            {
                                OFFSET   8.364480   0.000016   1.078090
                                CHANNELS 3 Zrotation Xrotation Yrotation
                                JOINT LeftFinger21
                                {
                                    OFFSET   5.111620   0.000000   0.000000
                                    CHANNELS 3 Zrotation Xrotation Yrotation
                                    JOINT LeftFinger22
                                    {
                                        OFFSET   2.788160   0.000017   0.000000
                                        CHANNELS 3 Zrotation Xrotation Yrotation
                                        End Site
                                        {
                                            OFFSET   2.727660   0.000000   0.000000
                                        }
                                    }
                                }
                            }
                            JOINT LeftFinger3
                            {
                                OFFSET   7.899780   0.000015  -1.078090
                                CHANNELS 3 Zrotation Xrotation Yrotation
                                JOINT LeftFinger31
                                {
                                    OFFSET   4.646920   0.000000   0.000000
                                    CHANNELS 3 Zrotation Xrotation Yrotation
                                    JOINT LeftFinger32
                                    {
                                        OFFSET   2.323470   0.000000   0.000000
                                        CHANNELS 3 Zrotation Xrotation Yrotation
                                        End Site
                                        {
                                            OFFSET   2.273050   0.000000   0.000000
                                        }
                                    }
                                }
                            }
                            JOINT LeftFinger4
                            {
                                OFFSET   7.435090   0.000000  -3.252850
                                CHANNELS 3 Zrotation Xrotation Yrotation
                                JOINT LeftFinger41
                                {
                                    OFFSET   3.717550   0.000000   0.000000
                                    CHANNELS 3 Zrotation Xrotation Yrotation
                                    JOINT LeftFinger42
                                    {
                                        OFFSET   1.858760   0.000000   0.000000
                                        CHANNELS 3 Zrotation Xrotation Yrotation
                                        End Site
                                        {
                                            OFFSET   1.818440   0.000000   0.000000
                                        }
                                    }
                                }
                            }
                        }
                    }
                }
            }
            JOINT RightCollar
            {
                OFFSET  -3.911900  19.017000  -0.467062
                CHANNELS 3 Zrotation Xrotation Yrotation
                JOINT RightShoulder
                {
                    OFFSET -10.383700   0.000015   0.000000
                    CHANNELS 3 Zrotation Xrotation Yrotation
                    JOINT RightElbow
                    {
                        OFFSET -26.662100   0.001341   0.000385
                        CHANNELS 3 Zrotation Xrotation Yrotation
                        JOINT RightWrist
                        {
                            OFFSET -28.869000   0.000025  -0.000080
                            CHANNELS 3 Zrotation Xrotation Yrotation
                            JOINT RightFinger0
                            {
                                OFFSET  -2.044650  -2.323490   3.252850
                                CHANNELS 3 Zrotation Xrotation Yrotation
                                JOINT RightFinger01
                                {
                                    OFFSET  -3.088130   0.000000   0.000000
                                    CHANNELS 3 Zrotation Xrotation Yrotation
                                    JOINT RightFinger02
                                    {
                                        OFFSET  -2.639460   0.000000   0.000000
                                        CHANNELS 3 Zrotation Xrotation Yrotation
                                        End Site
                                        {
                                            OFFSET  -2.582190   0.000000   0.000000
                                        }
                                    }
                                }
                            }
                            JOINT RightFinger1
                            {
                                OFFSET  -8.364480   0.000000   3.252850
                                CHANNELS 3 Zrotation Xrotation Yrotation
                                JOINT RightFinger11
                                {
                                    OFFSET  -4.646930   0.000000   0.000000
                                    CHANNELS 3 Zrotation Xrotation Yrotation
                                    JOINT RightFinger12
                                    {
                                        OFFSET  -2.323470   0.000000   0.000000
                                        CHANNELS 3 Zrotation Xrotation Yrotation
                                        End Site
                                        {
                                            OFFSET  -2.273050   0.000000   0.000000
                                        }
                                    }
                                }
                            }
                            JOINT RightFinger2
                            {
                                OFFSET  -8.364480   0.000000   1.078090
                                CHANNELS 3 Zrotation Xrotation Yrotation
                                JOINT RightFinger21
                                {
                                    OFFSET  -5.111610   0.000000   0.000000
                                    CHANNELS 3 Zrotation Xrotation Yrotation
                                    JOINT RightFinger22
                                    {
                                        OFFSET  -2.788160   0.000000   0.000000
                                        CHANNELS 3 Zrotation Xrotation Yrotation
                                        End Site
                                        {
                                            OFFSET  -2.727660   0.000000   0.000000
                                        }
                                    }
                                }
                            }
                            JOINT RightFinger3
                            {
                                OFFSET  -7.899780   0.000000  -1.078090
                                CHANNELS 3 Zrotation Xrotation Yrotation
                                JOINT RightFinger31
                                {
                                    OFFSET  -4.646920   0.000000   0.000000
                                    CHANNELS 3 Zrotation Xrotation Yrotation
                                    JOINT RightFinger32
                                    {
                                        OFFSET  -2.323470   0.000000   0.000000
                                        CHANNELS 3 Zrotation Xrotation Yrotation
                                        End Site
                                        {
                                            OFFSET  -2.273050   0.000000   0.000000
                                        }
                                    }
                                }
                            }
                            JOINT RightFinger4
                            {
                                OFFSET  -7.435090   0.000000  -3.252850
                                CHANNELS 3 Zrotation Xrotation Yrotation
                                JOINT RightFinger41
                                {
                                    OFFSET  -3.717550   0.000000   0.000000
                                    CHANNELS 3 Zrotation Xrotation Yrotation
                                    JOINT RightFinger42
                                    {
                                        OFFSET  -1.858770   0.000000   0.000000
                                        CHANNELS 3 Zrotation Xrotation Yrotation
                                        End Site
                                        {
                                            OFFSET  -1.818440   0.000000   0.000000
                                        }
                                    }
                                }
                            }
                        }
                    }
                }
            }
        }
    }
    JOINT LeftHip
    {
        OFFSET   9.783010   0.000000   0.000000
        CHANNELS 3 Zrotation Xrotation Yrotation
        JOINT LeftKnee
        {
            OFFSET   0.000070 -41.789100   0.000028
            CHANNELS 3 Zrotation Xrotation Yrotation
            JOINT LeftAnkle
            {
                OFFSET   0.000087 -41.133200  -0.000100
                CHANNELS 3 Zrotation Xrotation Yrotation
                JOINT LeftToe
                {
                    OFFSET   0.000000  -6.358960  14.674500
                    CHANNELS 3 Zrotation Xrotation Yrotation
                    End Site
                    {
                        OFFSET   0.000000   0.000000   3.913200
                    }
                }
            }
        }
    }
    JOINT RightHip
    {
        OFFSET  -9.783020   0.000000   0.000000
        CHANNELS 3 Zrotation Xrotation Yrotation
        JOINT RightKnee
        {
            OFFSET   0.000044 -41.789100  -0.000870
            CHANNELS 3 Zrotation Xrotation Yrotation
            JOINT RightAnkle
            {
                OFFSET  -0.000090 -41.133200  -0.000245
                CHANNELS 3 Zrotation Xrotation Yrotation
                JOINT RightToe
                {
                    OFFSET   0.000000  -6.358960  14.674500
                    CHANNELS 3 Zrotation Xrotation Yrotation
                    End Site
                    {
                        OFFSET   0.000000   0.000000   3.913200
                    }
                }
            }
        }
    }
}
MOTION
Frames: 4
Frame Time:   0.016667
 -2.036580  89.364000  -0.797744  -0.293142 -12.370800   0.296629   1.209880   9.391420  -3.011900   2.987190  18.702000  -6.357270   3.348280  -0.200133   0.011740   5.500850  -0.401600  13.806200  -9.779410  -6.826020   6.319220 -65.266600   6.082980 -48.766600  -5.383780 -12.534200 -35.095600  -1.018510 -81.217900  -2.722820  41.665600  29.021200 -64.995000 -22.192100   0.000411   0.000221  -6.096100   0.001011   0.000257 -25.553400   2.415910  -5.030140 -20.992300  -0.000124  -0.003140 -14.694600  -0.002883  -0.003816 -27.555300  -3.235460   6.187470 -30.212700   0.017293  -0.005853 -20.121700   0.013594   0.003241 -24.701100  -2.920260   6.336230 -24.545300   0.013808  -0.004920 -16.347200   0.001990  -0.000325 -22.356300  -4.263800  10.256600 -34.105100   0.005204  -0.013836 -22.714000  -0.003313   0.002635  10.300200  -0.587277  13.280200  67.094500 -11.208500  51.135700  -6.893590 -18.434200  35.119600 -61.631300 -83.510300 -40.810700 -41.507000  34.357000  66.516900  28.529000   0.003236  -0.001638   9.264500  -0.001872   0.002877  18.624100   2.505600   7.343910  15.364200   0.017101   0.003510  10.755000   0.013027  -0.002961  18.438300  -0.587221  -1.820640  18.437600   0.028320   0.014011  12.279400   0.019793  -0.000968  22.140300  -0.705387  -1.781850  22.185800   0.023013   0.001162  14.775800   0.015579  -0.000264  23.676500  -2.854830  -6.482040  35.761400   0.027964   0.012499  23.817100   0.020417  -0.002699   4.294230  13.382000  -0.026432   0.696643   2.427800  12.237100  -5.272110  -3.023950  -0.899277  -0.000000   0.000000   0.000000  -0.736782  14.699100  -4.747690   1.256300   1.262200 -12.902600  -0.283001  -3.240940   3.549330   0.000000   0.000000   0.000000
 -2.060250  89.364400  -0.763256  -0.287724 -12.250700   0.328119   1.190710   9.315380  -2.996590   2.940040  18.551600  -6.318810   3.317550  -0.270296   0.015692   5.450480  -0.542463  13.842400  -9.837830  -6.840750   6.222260 -65.287800   5.784190 -48.152100  -5.068910 -12.135300 -34.791200   0.039277 -80.863100  -1.374540  41.400300  28.842400 -64.674400 -22.462900   0.000558   0.000271  -6.231490   0.001145   0.000240 -26.154700   2.365190  -4.791690 -21.477800  -0.000174  -0.002952 -15.034500  -0.002995  -0.003691 -27.790800  -3.558270   6.725090 -31.803900   0.023782  -0.005933 -21.181400   0.015810   0.003389 -25.655300  -3.304240   6.846920 -25.540800   0.016991  -0.004956 -17.010200   0.001895  -0.000334 -22.940100  -4.481670  10.471400 -35.022200   0.006249  -0.014019 -23.324800  -0.003636   0.002711  10.348800  -0.642549  13.347100  66.774700 -11.113000  50.526200  -6.902900 -18.448800  34.767700 -57.817200 -83.432300 -37.154700 -41.910900  35.090500  67.186300  28.591600   0.003077  -0.001626   9.295810  -0.001973   0.003161  19.906700   2.577950   7.068360  16.405700   0.026665   0.004462  11.484000   0.020057  -0.002957  20.044500  -0.845100  -2.365370  20.046700   0.038850   0.014617  13.351100   0.027194  -0.001081  23.609600  -1.002870  -2.313230  23.331400   0.036875   0.001199  15.538700   0.025030  -0.000276  24.864000  -2.895580  -6.239610  37.535500   0.040875   0.013252  24.998600   0.028346  -0.002812   4.315830  13.284200  -0.030692   0.695416   2.420810  12.215900  -5.291450  -3.033040  -0.902169  -0.000000   0.000000   0.000000  -0.747193  14.640700  -4.725560   1.319730   1.179850 -12.994100  -0.324841  -3.231560   3.592420   0.000000   0.000000  -0.000000
 -2.083630  89.364800  -0.724524  -0.281687 -12.118500   0.364016   1.171290   9.233400  -2.979970   2.891830  18.389400  -6.277440   3.283980  -0.347874   0.019966   5.395550  -0.698323  13.867600  -9.887050  -6.843670   6.144510 -65.348500   5.469780 -47.418600  -4.704010 -11.577400 -34.555900   1.080350 -80.455800  -0.027190  41.137400  28.660400 -64.356100 -22.773800   0.000709   0.000333  -6.386940   0.001284   0.000220 -26.775500   2.313990  -4.561790 -21.979600  -0.000223  -0.002761 -15.385700  -0.003113  -0.003563 -28.010500  -3.849340   7.199750 -33.575700   0.027662  -0.006017 -22.361400   0.017105   0.003520 -26.488200  -3.652830   7.296250 -26.694000   0.018660  -0.005002 -17.778200   0.001800  -0.000382 -23.547200  -4.699400  10.660200 -35.974500   0.007282  -0.014189 -23.959000  -0.003952   0.002778  10.397900  -0.685631  13.411800  66.420200 -11.006600  49.806200  -6.955700 -18.356800  34.418600 -53.696600 -83.088200 -33.206500 -42.686900  36.116000  67.687100  28.730600   0.002922  -0.001614   9.365320  -0.002072   0.003449  21.341600   2.619660   6.621810  17.568200   0.032513   0.005354  12.297700   0.024306  -0.002954  21.796100  -1.166610  -2.965370  21.805000   0.044512   0.014704  14.522100   0.031157  -0.001194  25.130500  -1.356310  -2.901730  24.639600   0.045693   0.001234  16.409900   0.031023  -0.000284  26.206400  -2.959040  -6.006370  39.542500   0.048226   0.013360  26.335300   0.032523  -0.002921   4.334960  13.177800  -0.035258   0.695471   2.407270  12.192900  -5.309350  -3.039430  -0.904985  -0.000000   0.000000   0.000000  -0.754793  14.579500  -4.717200   1.384400   1.085890 -13.077200  -0.367820  -3.218880   3.637430   0.000000   0.000000   0.000000
 -2.109030  89.365200  -0.680604  -0.274403 -11.974900   0.405710   1.150510   9.148650  -2.958560   2.839940  18.221900  -6.226060   3.244600  -0.434617   0.024633   5.331210  -0.872925  13.880000  -9.933060  -6.835880   6.071160 -65.455100   5.143940 -46.501200  -4.337310 -10.856300 -34.512900   2.223580 -79.928900   1.402340  41.423900  29.220300 -64.197800 -23.042400   0.000781   0.000363  -6.521230   0.001441   0.000191 -27.411300   2.247030  -4.314200 -22.494100  -0.000277  -0.002547 -15.745800  -0.003233  -0.003431 -28.185700  -4.009050   7.426000 -35.393200   0.028104  -0.006097 -23.571900   0.017699   0.003626 -26.997300  -3.856530   7.503440 -28.042600   0.019184  -0.005071 -18.676400   0.001701  -0.001968 -24.144500  -4.903810  10.806100 -36.909700   0.008281  -0.014351 -24.581900  -0.004265   0.002843  10.434900  -0.689259  13.448200  66.071500 -10.890800  48.997500  -7.085810 -18.065000  34.093400 -49.513900 -82.312900 -29.245900 -43.640000  37.314400  67.797600  29.048500   0.002842  -0.001570   9.524310  -0.002168   0.003595  22.891200   2.487460   5.818290  18.814100   0.027646   0.006134  13.169800   0.020549  -0.002956  23.492600  -1.573240  -3.638540  23.505300   0.035507   0.012574  15.654500   0.025088  -0.001303  26.413700  -1.769270  -3.570000  26.200900   0.039909   0.001272  17.449700   0.027061  -0.000282  27.628100  -3.086780  -5.895780  41.677300   0.038332   0.007229  27.757100   0.024692  -0.003029   4.350170  13.066400  -0.038823   0.698518   2.384030  12.168800  -5.323620  -3.043370  -0.909143  -0.000000   0.000000  -0.000000  -0.761636  14.518300  -4.732960   1.449980   0.983296 -13.136000  -0.412256  -3.207820   3.677160  -0.000000   0.000000   0.000000
